<svg width="24" height="24" viewBox="0 0 24 24" fill="none" xmlns="http://www.w3.org/2000/svg">
<path d="M8.6002 9.88006L13.1902 5.29006C13.3776 5.10381 13.631 4.99927 13.8952 4.99927C14.1594 4.99927 14.4128 5.10381 14.6002 5.29006C14.6939 5.38302 14.7683 5.49362 14.8191 5.61548C14.8699 5.73734 14.896 5.86805 14.896 6.00006C14.896 6.13207 14.8699 6.26278 14.8191 6.38464C14.7683 6.5065 14.6939 6.6171 14.6002 6.71006L10.0002 11.2901C9.90647 11.383 9.83207 11.4936 9.78131 11.6155C9.73054 11.7373 9.7044 11.868 9.7044 12.0001C9.7044 12.1321 9.73054 12.2628 9.78131 12.3846C9.83207 12.5065 9.90647 12.6171 10.0002 12.7101L14.6002 17.2901C14.7885 17.477 14.8948 17.7312 14.8958 17.9965C14.8967 18.2619 14.7922 18.5168 14.6052 18.7051C14.4182 18.8934 14.1641 18.9997 13.8987 19.0006C13.6334 19.0016 13.3785 18.897 13.1902 18.7101L8.6002 14.1201C8.03839 13.5576 7.72284 12.7951 7.72284 12.0001C7.72284 11.2051 8.03839 10.4426 8.6002 9.88006Z" fill="#384250"/>
</svg>
