<svg width="20" height="20" viewBox="0 0 20 20" fill="none" xmlns="http://www.w3.org/2000/svg">
<path d="M9.16027 5.83342C9.16027 5.37318 9.53336 5.00008 9.9936 5.00008H10.0011C10.4613 5.00008 10.8344 5.37318 10.8344 5.83342C10.8344 6.29365 10.4613 6.66675 10.0011 6.66675H9.9936C9.53336 6.66675 9.16027 6.29365 9.16027 5.83342Z" fill="#161616"/>
<path fill-rule="evenodd" clip-rule="evenodd" d="M8.21336 1.46847C8.83118 1.19861 9.38955 1.04175 9.99704 1.04175C10.6045 1.04175 11.1629 1.1986 11.7807 1.46847C12.3799 1.73018 13.0747 2.11687 13.9487 2.60324L17.4004 4.52419C17.8808 4.79151 18.2828 5.12725 18.559 5.57996C18.8365 6.03492 18.9554 6.55618 18.9554 7.14097L18.9554 7.19604C18.9558 7.40892 18.9562 7.62485 18.9049 7.81801C18.7758 8.30408 18.4681 8.61738 18.0912 8.78528C17.822 8.90522 17.5343 8.94381 17.2887 8.95465V15.1522C18.2799 15.6761 18.9554 16.7176 18.9554 17.9167C18.9554 18.492 18.489 18.9584 17.9137 18.9584H2.08039C1.5051 18.9584 1.03873 18.492 1.03873 17.9167C1.03873 16.7176 1.71418 15.6761 2.70539 15.1522V8.95465C2.45977 8.94381 2.17212 8.90523 1.90291 8.78528C1.52603 8.61738 1.21831 8.30408 1.08918 7.81801C1.03786 7.62485 1.03825 7.40892 1.03864 7.19604L1.03871 7.14097C1.03871 6.55618 1.15758 6.03492 1.43513 5.57996C1.71129 5.12725 2.1133 4.79151 2.59364 4.52419L6.04543 2.60323C6.91937 2.11687 7.61419 1.73018 8.21336 1.46847ZM8.71371 2.61396C8.17606 2.84881 7.53337 3.2057 6.62586 3.71074L3.20149 5.61644C2.84996 5.81207 2.63504 6.01325 2.50224 6.23093C2.37082 6.44636 2.28871 6.72896 2.28871 7.14097C2.28871 7.28175 2.28886 7.36663 2.29176 7.43067C2.29385 7.47696 2.29687 7.49468 2.29749 7.49787C2.3139 7.55925 2.33359 7.58609 2.34389 7.59786C2.35492 7.61047 2.37352 7.62651 2.41161 7.64348C2.50306 7.68422 2.65413 7.70842 2.88811 7.70842H17.106C17.34 7.70842 17.491 7.68422 17.5825 7.64348C17.6206 7.62651 17.6392 7.61047 17.6502 7.59786C17.6605 7.58609 17.6802 7.55925 17.6966 7.49787C17.6972 7.49467 17.7002 7.47695 17.7023 7.43067C17.7052 7.36663 17.7054 7.28175 17.7054 7.14097C17.7054 6.72896 17.6233 6.44636 17.4918 6.23093C17.359 6.01325 17.1441 5.81207 16.7926 5.61644L13.3682 3.71074C12.4607 3.2057 11.818 2.8488 11.2804 2.61396C10.7551 2.38454 10.3731 2.29175 9.99704 2.29175C9.62097 2.29175 9.23895 2.38454 8.71371 2.61396ZM3.95539 14.7986C4.02425 14.7941 4.09372 14.7917 4.16373 14.7917H6.03873V8.95842H3.95539V14.7986ZM7.28873 14.7917H12.7054V8.95842H7.28873V14.7917ZM13.9554 14.7917H15.8304C15.9004 14.7917 15.9699 14.7941 16.0387 14.7986V8.95842H13.9554V14.7917ZM17.694 17.7084H2.30017C2.4038 16.7709 3.19861 16.0417 4.16373 16.0417H15.8304C16.7955 16.0417 17.5903 16.7709 17.694 17.7084Z" fill="#161616"/>
</svg>
