<svg width="22" height="22" viewBox="0 0 22 22" fill="none" xmlns="http://www.w3.org/2000/svg">
<path d="M6.70001 11.7507C6.28601 11.7507 5.95001 11.4147 5.95001 11.0007C5.95001 10.5867 6.28601 10.2507 6.70001 10.2507H12.7C13.114 10.2507 13.45 10.5867 13.45 11.0007C13.45 11.4147 13.114 11.7507 12.7 11.7507H6.70001Z" fill="#6C737F"/>
<path d="M9.70001 7.75073H6.70001C6.28601 7.75073 5.95001 7.41473 5.95001 7.00073C5.95001 6.58673 6.28601 6.25073 6.70001 6.25073H9.70001C10.114 6.25073 10.45 6.58673 10.45 7.00073C10.45 7.41473 10.114 7.75073 9.70001 7.75073Z" fill="#6C737F"/>
<path fill-rule="evenodd" clip-rule="evenodd" d="M3.0033 17.7517H3.00495C4.05695 17.7517 4.91092 17.4848 5.67692 16.9198L5.73893 16.8748L5.76049 16.8592C5.81799 16.8179 5.87736 16.7752 5.928 16.7397C6.038 16.7817 6.18395 16.8427 6.30495 16.8937C6.75495 17.0787 7.28395 17.2007 7.80095 17.2387C9.06095 17.3207 10.339 17.3207 11.599 17.2387H11.6009C15.5089 16.9747 18.655 13.8108 18.919 9.87377C18.961 9.15677 18.961 8.39371 18.919 7.65971C18.655 3.72371 15.508 0.564762 11.6 0.311762C10.339 0.228762 9.06192 0.228762 7.80192 0.311762C3.89392 0.565762 0.747 3.72472 0.482 7.66772C0.44 8.39372 0.44 9.15668 0.482 9.88168C0.569 11.1367 1.04496 12.4018 1.93796 13.7488C2.17196 14.1988 1.91199 14.8848 1.64899 15.3868C1.28599 16.0518 1.00097 16.5778 1.32897 17.1528C1.3304 17.1563 1.33234 17.1594 1.33443 17.1627C1.33526 17.164 1.33612 17.1653 1.33698 17.1667C1.67316 17.7274 2.26013 17.7387 2.88144 17.7506L2.886 17.7507C2.92611 17.7517 2.96422 17.7517 3.0033 17.7517ZM2.91393 16.2507H2.88698C2.91498 16.1997 2.94194 16.1487 2.96794 16.1007C2.96894 16.0977 2.97102 16.0938 2.97302 16.0908C3.61502 14.8698 3.70298 13.8277 3.23298 12.9937C3.22427 12.9782 3.21463 12.9628 3.20497 12.9473L3.20397 12.9457C2.44797 11.8117 2.04697 10.7757 1.97897 9.78871C1.94097 9.12871 1.94097 8.42574 1.97897 7.76274C2.19397 4.57474 4.73897 2.01569 7.89997 1.81069C9.09397 1.73169 10.3059 1.73269 11.5019 1.81069C14.6629 2.01569 17.2079 4.57373 17.4219 7.75473C17.4599 8.42473 17.4599 9.12768 17.4219 9.78168C17.2079 12.9667 14.662 15.5297 11.5 15.7437C10.305 15.8217 9.09395 15.8217 7.90495 15.7437C7.55295 15.7177 7.17795 15.6317 6.87995 15.5097C6.33295 15.2797 6.04895 15.1608 5.72995 15.2078C5.43995 15.2438 5.21993 15.4018 4.86393 15.6578L4.79499 15.7067C4.26499 16.0967 3.68493 16.2627 2.91393 16.2507Z" fill="#6C737F"/>
<path d="M19.5023 21.7518C18.5283 21.7518 17.6973 21.4958 16.9643 20.9698C16.8853 20.9118 16.8074 20.8548 16.7424 20.8088C16.6244 20.8538 16.4794 20.9138 16.4084 20.9438C15.9974 21.1148 15.4964 21.2308 14.9984 21.2688H14.9874C13.8244 21.3398 12.5894 21.3398 11.4154 21.2688C9.85642 21.1608 8.44735 20.5929 7.22235 19.5779C6.90335 19.3139 6.85943 18.8408 7.12343 18.5218C7.38742 18.2028 7.86038 18.1588 8.17938 18.4228C9.15738 19.2328 10.2784 19.6868 11.5124 19.7718C12.6174 19.8398 13.7873 19.8398 14.8893 19.7718C15.2253 19.7458 15.5694 19.6678 15.8324 19.5578C16.3604 19.3388 16.6274 19.2358 16.9154 19.2638C16.9354 19.2658 16.9564 19.2688 16.9764 19.2728C17.2554 19.3238 17.4654 19.4768 17.8444 19.7558C18.3134 20.0918 18.8434 20.2518 19.5014 20.2518H19.5454L19.5303 20.2233C19.5227 20.2089 19.5152 20.1946 19.5074 20.1808L19.4974 20.1618C18.7194 18.7268 18.9334 17.7678 19.2504 17.2168C19.2584 17.2028 19.2674 17.1888 19.2764 17.1748C19.9874 16.1088 20.3624 15.1458 20.4224 14.2318C20.4604 13.6208 20.4604 12.9658 20.4224 12.3408C20.3684 11.6158 20.1984 10.9318 19.9174 10.3088C19.7474 9.93081 19.9153 9.48682 20.2933 9.31682C20.6703 9.14682 21.1153 9.31479 21.2853 9.69279C21.6393 10.4778 21.8524 11.3338 21.9194 12.2358V12.2458C21.9614 12.9318 21.9614 13.6508 21.9194 14.3268C21.8424 15.5058 21.3914 16.6998 20.5414 17.9818C20.3184 18.4018 20.6184 19.0818 20.8204 19.4538L20.8344 19.4798C21.1714 20.1168 21.4374 20.6198 21.1204 21.1668C20.7954 21.7278 20.1964 21.7398 19.6164 21.7508C19.5974 21.7508 19.5784 21.751 19.5594 21.7513C19.5403 21.7515 19.5213 21.7518 19.5023 21.7518Z" fill="#6C737F"/>
</svg>
