<svg width="20" height="21" viewBox="0 0 20 21" fill="none" xmlns="http://www.w3.org/2000/svg">
<path fill-rule="evenodd" clip-rule="evenodd" d="M10 19.495C15.0626 19.495 19.1667 15.3909 19.1667 10.3283C19.1667 5.26568 15.0626 1.16162 10 1.16162C4.93743 1.16162 0.833374 5.26568 0.833374 10.3283C0.833374 15.3909 4.93743 19.495 10 19.495Z" fill="white"/>
<path fill-rule="evenodd" clip-rule="evenodd" d="M10 19.495C15.0626 19.495 19.1667 15.3909 19.1667 10.3283C19.1667 5.26568 15.0626 1.16162 10 1.16162C4.93743 1.16162 0.833374 5.26568 0.833374 10.3283C0.833374 15.3909 4.93743 19.495 10 19.495ZM5.87522 9.59605C5.54978 9.92149 5.54978 10.4491 5.87522 10.7746L8.23224 13.1316C8.55768 13.457 9.08532 13.457 9.41076 13.1316L14.1248 8.41754C14.4502 8.09211 14.4502 7.56447 14.1248 7.23903C13.7994 6.91359 13.2717 6.91359 12.9463 7.23903L8.8215 11.3638L7.05373 9.59605C6.7283 9.27062 6.20066 9.27062 5.87522 9.59605Z" fill="#C97035"/>
</svg>
