<svg width="20" height="20" viewBox="0 0 20 20" fill="none" xmlns="http://www.w3.org/2000/svg">
<path d="M10 1.875H9.95254C8.22501 1.87499 6.86474 1.87498 5.80195 2.01787C4.71147 2.16448 3.84106 2.47175 3.15641 3.15641C2.47175 3.84106 2.16448 4.71147 2.01787 5.80195C1.87498 6.86474 1.87499 8.22501 1.875 9.95254V10.0475C1.87499 11.775 1.87498 13.1353 2.01787 14.198C2.16448 15.2885 2.47175 16.1589 3.15641 16.8436C3.84106 17.5282 4.71147 17.8355 5.80195 17.9821C6.86474 18.125 8.22502 18.125 9.95255 18.125H10.0475C11.775 18.125 13.1353 18.125 14.198 17.9821C15.2885 17.8355 16.1589 17.5282 16.8436 16.8436C17.5282 16.1589 17.8355 15.2885 17.9821 14.198C18.125 13.1353 18.125 11.775 18.125 10.0475V10C18.125 9.65482 17.8452 9.375 17.5 9.375C17.1548 9.375 16.875 9.65482 16.875 10C16.875 11.7854 16.8737 13.0616 16.7433 14.0315C16.6153 14.9834 16.3734 15.546 15.9597 15.9597C15.546 16.3734 14.9834 16.6153 14.0315 16.7433C13.0616 16.8737 11.7854 16.875 10 16.875C8.21456 16.875 6.93836 16.8737 5.96851 16.7433C5.01664 16.6153 4.45399 16.3734 4.04029 15.9597C3.6266 15.546 3.3847 14.9834 3.25672 14.0315C3.12633 13.0616 3.125 11.7854 3.125 10C3.125 8.21457 3.12633 6.93836 3.25672 5.96851C3.3847 5.01664 3.6266 4.45399 4.04029 4.04029C4.45399 3.6266 5.01664 3.3847 5.96851 3.25672C6.93836 3.12633 8.21456 3.125 10 3.125C10.3452 3.125 10.625 2.84518 10.625 2.5C10.625 2.15482 10.3452 1.875 10 1.875Z" fill="#161616"/>
<path fill-rule="evenodd" clip-rule="evenodd" d="M17.4581 2.54192C16.5689 1.65269 15.1272 1.6527 14.2379 2.54192L8.64121 8.13864C7.83404 8.94562 7.3407 9.43883 7.00139 10.046C6.81213 10.3847 6.64679 10.8985 6.5005 11.4242C6.35 11.965 6.20184 12.5873 6.06041 13.1813L6.05868 13.1886C6.0084 13.3997 6.07127 13.6218 6.22474 13.7753C6.37821 13.9287 6.60031 13.9916 6.81144 13.9413L6.81868 13.9396C7.4127 13.7982 8.03498 13.65 8.57581 13.4995C9.10153 13.3532 9.61526 13.1879 9.95396 12.9986C10.5612 12.6593 11.0544 12.166 11.8614 11.3588L17.4581 5.76207C18.3473 4.87285 18.3473 3.43114 17.4581 2.54192ZM15.1218 3.4258C15.5229 3.02473 16.1731 3.02473 16.5742 3.4258C16.9753 3.82686 16.9753 4.47712 16.5742 4.87818L15.848 5.60438L14.3956 4.15199L15.1218 3.4258ZM13.5118 5.03587L14.9641 6.48826L11.0445 10.4079C10.1494 11.303 9.78185 11.6629 9.34421 11.9074C9.15216 12.0147 8.7739 12.1469 8.2407 12.2953C8.01286 12.3587 7.76847 12.422 7.51473 12.4853C7.57802 12.2315 7.64133 11.9872 7.70474 11.7593C7.85312 11.2261 7.98527 10.8479 8.09258 10.6558C8.33713 10.2182 8.69706 9.85057 9.59214 8.95548L13.5118 5.03587Z" fill="#161616"/>
</svg>
