<svg width="20" height="20" viewBox="0 0 20 20" fill="none" xmlns="http://www.w3.org/2000/svg">
<path d="M9.10693 1.4585H10.894C11.629 1.45847 12.248 1.45844 12.728 1.52734C13.2322 1.59973 13.7161 1.76473 14.0512 2.20486C14.32 2.55784 14.3928 2.95764 14.3721 3.36514C14.3546 3.70988 14.061 3.97518 13.7163 3.9577C13.3715 3.94022 13.1062 3.64659 13.1237 3.30186C13.1345 3.09022 13.0945 3.01177 13.0567 2.96214C13.0111 2.90227 12.9168 2.81727 12.5503 2.76466C12.1698 2.71004 11.6418 2.7085 10.8465 2.7085H9.15438C8.35914 2.7085 7.83107 2.71004 7.45058 2.76466C7.08408 2.81727 6.98978 2.90227 6.9442 2.96214C6.90641 3.01177 6.86645 3.09022 6.87718 3.30186C6.89466 3.64659 6.62936 3.94022 6.28463 3.9577C5.93989 3.97518 5.64626 3.70988 5.62879 3.36514C5.60813 2.95764 5.68092 2.55784 5.9497 2.20486C6.28485 1.76473 6.7687 1.59973 7.27295 1.52734C7.75291 1.45844 8.37189 1.45847 9.10693 1.4585Z" fill="#161616"/>
<path d="M7.86126 4.79183H12.1399C13.1071 4.7918 13.9039 4.79178 14.5168 4.88355C15.1579 4.97955 15.7308 5.19372 16.1167 5.73067C16.301 5.98717 16.4077 6.27034 16.4524 6.57668C16.5022 6.91825 16.2656 7.23551 15.9241 7.2853C15.5825 7.33509 15.2652 7.09855 15.2154 6.75698C15.197 6.63061 15.1588 6.53971 15.1016 6.46018C14.9998 6.31854 14.8234 6.19341 14.3316 6.11976C13.8224 6.0435 13.1201 6.04183 12.0885 6.04183H7.9126C6.88107 6.04183 6.17877 6.0435 5.66951 6.11976C5.17773 6.19341 5.00129 6.31854 4.8995 6.46018C4.84234 6.53971 4.80412 6.63062 4.7857 6.75698C4.73591 7.09855 4.41866 7.33509 4.07709 7.2853C3.73552 7.23551 3.49898 6.91825 3.54877 6.57668C3.59343 6.27034 3.7001 5.98717 3.88445 5.73067C4.27036 5.19372 4.84326 4.97955 5.48439 4.88355C6.09721 4.79178 6.89402 4.7918 7.86126 4.79183Z" fill="#161616"/>
<path fill-rule="evenodd" clip-rule="evenodd" d="M13.7545 8.12517H6.24625C5.26802 8.12514 4.46317 8.12511 3.84477 8.21737C3.19874 8.31375 2.62151 8.52866 2.23408 9.0688C1.84884 9.60587 1.82392 10.2242 1.92867 10.8746C2.02952 11.5008 2.27295 12.2806 2.5702 13.2329L3.1841 15.1997C3.55706 16.3947 3.94877 17.3021 4.69031 17.8609C5.43615 18.423 6.4138 18.5418 7.6756 18.5418H12.3251C13.5869 18.5418 14.5646 18.423 15.3104 17.8609C16.052 17.3021 16.4437 16.3947 16.8166 15.1997L17.4306 13.2328C17.7278 12.2806 17.9712 11.5007 18.0721 10.8746C18.1768 10.2242 18.1519 9.60588 17.7667 9.0688C17.3792 8.52866 16.802 8.31375 16.156 8.21737C15.5376 8.12511 14.7327 8.12514 13.7545 8.12517ZM3.2498 9.79736C3.35221 9.65459 3.53087 9.52804 4.02922 9.45369C4.54443 9.37683 5.25513 9.37517 6.29755 9.37517H13.7032C14.7456 9.37517 15.4563 9.37683 15.9715 9.45369C16.4699 9.52804 16.6485 9.65459 16.7509 9.79736C16.8555 9.94319 16.9206 10.1627 16.838 10.6758C16.7531 11.2027 16.5382 11.8964 16.2225 12.908L15.6234 14.8273C15.2501 16.0233 14.9498 16.5675 14.5582 16.8626C14.1708 17.1545 13.5742 17.2918 12.3251 17.2918H7.6756C6.42658 17.2918 5.82991 17.1545 5.44259 16.8626C5.05095 16.5675 4.75064 16.0233 4.37733 14.8273L3.77826 12.908C3.46253 11.8964 3.24762 11.2027 3.16276 10.6758C3.08012 10.1627 3.1452 9.9432 3.2498 9.79736Z" fill="#161616"/>
</svg>
