<svg width="20" height="20" viewBox="0 0 20 20" fill="none" xmlns="http://www.w3.org/2000/svg">
<path fill-rule="evenodd" clip-rule="evenodd" d="M7.3229 3.48517C7.02988 3.37529 6.68217 3.36579 5.6632 3.36579C4.89516 3.36579 4.35975 3.36636 3.94414 3.40299C3.53675 3.4389 3.30442 3.50573 3.12926 3.60349C2.82564 3.77293 2.57511 4.02345 2.40567 4.32708C2.30792 4.50224 2.24108 4.73457 2.20517 5.14196C2.16854 5.55757 2.16797 6.09298 2.16797 6.86102V9.40746C2.16797 11.3893 2.1693 12.8128 2.31494 13.8961C2.45818 14.9615 2.73059 15.6037 3.2053 16.0785C3.68001 16.5532 4.32228 16.8256 5.38762 16.9688C6.47093 17.1145 7.89445 17.1158 9.8763 17.1158H10.918C12.394 17.1158 13.4539 17.115 14.2778 17.0312C15.0912 16.9485 15.605 16.79 16.0106 16.5189C16.3973 16.2605 16.7294 15.9285 16.9878 15.5418C17.2588 15.1361 17.4173 14.6224 17.5001 13.8089C17.5839 12.9851 17.5846 11.9251 17.5846 10.4491C17.5846 9.55832 17.5839 8.93727 17.5352 8.45853C17.4875 7.99023 17.3992 7.7279 17.2686 7.53243C17.1318 7.3277 16.9561 7.15191 16.7513 7.01512C16.5559 6.88451 16.2935 6.79622 15.8252 6.74858C15.3465 6.69988 14.7254 6.69912 13.8346 6.69912H9.88984C9.88113 6.69931 9.87242 6.6993 9.86373 6.69912H5.70964C5.36446 6.69912 5.08464 6.4193 5.08464 6.07412C5.08464 5.72894 5.36446 5.44912 5.70964 5.44912H8.86503L8.77637 5.2718C8.31496 4.34887 8.01242 3.74374 7.3229 3.48517ZM10.2626 5.44912L9.90746 4.73889C9.88152 4.68701 9.85521 4.63377 9.82835 4.57942C9.435 3.78347 8.92468 2.75083 7.7618 2.31476C7.22941 2.11511 6.63634 2.11538 5.7785 2.11576C5.74059 2.11577 5.70216 2.11579 5.6632 2.11579L5.63423 2.11579C4.90195 2.11578 4.31134 2.11578 3.83438 2.15782C3.34293 2.20114 2.91287 2.29277 2.52012 2.51195C2.01408 2.79435 1.59653 3.2119 1.31413 3.71794C1.09495 4.11069 1.00332 4.54075 0.96 5.0322C0.917956 5.50916 0.917962 6.09977 0.917969 6.83205V9.45527C0.917958 11.3789 0.91795 12.8865 1.07609 14.0627C1.23796 15.2666 1.57574 16.2167 2.32142 16.9623C3.06709 17.708 4.01711 18.0458 5.22106 18.2077C6.3973 18.3658 7.90483 18.3658 9.82849 18.3658H10.9532C12.3863 18.3658 13.5098 18.3658 14.4043 18.2748C15.3166 18.182 16.0598 17.9894 16.7051 17.5582C17.2283 17.2087 17.6775 16.7594 18.0271 16.2362C18.4583 15.591 18.6508 14.8477 18.7437 13.9354C18.8346 13.0409 18.8346 11.9175 18.8346 10.4843V10.4154C18.8346 9.56625 18.8347 8.88146 18.7788 8.33202C18.7211 7.76489 18.5987 7.27306 18.308 6.83796C18.08 6.49675 17.787 6.20377 17.4458 5.97578C17.0107 5.68506 16.5189 5.56269 15.9517 5.505C15.4023 5.4491 14.7175 5.44911 13.8683 5.44912L10.2626 5.44912Z" fill="#161616"/>
</svg>
