<svg width="20" height="20" viewBox="0 0 20 20" fill="none" xmlns="http://www.w3.org/2000/svg">
<path fill-rule="evenodd" clip-rule="evenodd" d="M9.99984 2.2915C6.58211 2.2915 3.95817 4.69914 3.95817 7.49984V7.72122C4.06599 7.70728 4.18073 7.70399 4.30285 7.71387C4.60092 7.73797 4.8855 7.8682 5.18789 8.00659L5.258 8.03862L5.31249 8.06337C5.53973 8.1664 5.76234 8.26733 5.9399 8.42175C6.45896 8.87316 6.45847 9.46898 6.45819 9.81348V13.5198C6.45847 13.8643 6.45896 14.4602 5.9399 14.9116C5.76249 15.0659 5.54012 15.1667 5.31309 15.2697L5.258 15.2947L5.18795 15.3268C4.88578 15.465 4.60073 15.5954 4.30285 15.6195C3.43199 15.6899 2.94417 15.0959 2.65758 14.7469L2.63417 14.7184C2.56153 14.6302 2.4721 14.5265 2.37552 14.4146C2.19895 14.21 1.99851 13.9778 1.83321 13.7614C1.56017 13.4041 1.28656 12.9759 1.15065 12.4784C1.00512 11.9457 1.00512 11.3877 1.15065 10.8549C1.24927 10.4939 1.42771 10.1753 1.66326 9.84092C1.89121 9.51731 2.19825 9.14438 2.57789 8.68327L2.5941 8.66358C2.60956 8.64481 2.62574 8.6249 2.64268 8.60405C2.66324 8.57875 2.68531 8.55158 2.70817 8.52389V7.49984C2.70817 3.85721 6.05376 1.0415 9.99984 1.0415C13.9459 1.0415 17.2915 3.85721 17.2915 7.49984V8.51967C17.3085 8.54114 17.3248 8.56182 17.3398 8.58076L17.3419 8.58349C17.3691 8.61796 17.3919 8.64684 17.4056 8.66343L17.421 8.68214C17.801 9.14369 18.1083 9.51692 18.3364 9.84075C18.5719 10.1752 18.7504 10.4938 18.849 10.8548C18.9945 11.3875 18.9945 11.9455 18.849 12.4783C18.7131 12.9758 18.4395 13.4039 18.1664 13.7613C18.0012 13.9776 17.8008 14.2098 17.6242 14.4144C17.5276 14.5263 17.4382 14.63 17.3655 14.7183L17.3174 14.7768C17.3075 14.7889 17.2975 14.801 17.2876 14.8132C17.2555 15.7389 17.0274 16.4995 16.6077 17.1066C16.1531 17.7641 15.5144 18.1827 14.8026 18.4496C13.4458 18.9584 11.6852 18.9583 10.0784 18.9582H9.99984C9.65467 18.9582 9.37484 18.6783 9.37484 18.3332C9.37484 17.988 9.65467 17.7082 9.99984 17.7082C11.7054 17.7082 13.2428 17.6996 14.3638 17.2792C14.9019 17.0774 15.3049 16.7928 15.5795 16.3957C15.7223 16.1891 15.8414 15.9361 15.9228 15.6225C15.8477 15.6265 15.7721 15.6254 15.6968 15.6193C15.3991 15.5952 15.1147 15.4652 14.8126 15.327L14.7417 15.2945L14.6873 15.2701C14.3905 15.1375 13.8309 14.8875 13.6178 14.2566C13.5403 14.0271 13.5408 13.7818 13.5414 13.5536L13.5415 13.4961V9.83684L13.5414 9.77942C13.5408 9.55117 13.5403 9.30584 13.6178 9.07643C13.8309 8.44552 14.3905 8.19549 14.6873 8.06289C14.7066 8.05427 14.7248 8.04615 14.7417 8.03845L14.8117 8.00645C15.1141 7.86805 15.3988 7.73781 15.6968 7.7137C15.8119 7.70439 15.9275 7.70686 16.0415 7.7209V7.49984C16.0415 4.69914 13.4176 2.2915 9.99984 2.2915ZM16.1518 9.1045C16.1009 9.05075 16.066 9.02425 16.0423 9.01093C15.9735 8.97234 15.8872 8.95239 15.7976 8.95963C15.7479 8.96365 15.6792 8.985 15.2598 9.176C15.0767 9.25942 14.9738 9.30742 14.8946 9.36492C14.8341 9.40875 14.8146 9.43942 14.8022 9.47592C14.8012 9.48033 14.7981 9.49675 14.7958 9.53525C14.7918 9.59967 14.7915 9.68542 14.7915 9.83684V13.4961C14.7915 13.6476 14.7918 13.7333 14.7958 13.7978C14.7981 13.8363 14.8012 13.8527 14.8022 13.8571C14.8146 13.8936 14.8341 13.9243 14.8946 13.9681C14.9738 14.0256 15.0767 14.0736 15.2598 14.157C15.6792 14.348 15.7479 14.3693 15.7976 14.3733C15.8872 14.3806 15.9735 14.3607 16.0423 14.3221C16.0738 14.3043 16.1163 14.2688 16.4005 13.9238C16.5136 13.7863 16.6192 13.6645 16.721 13.5472L16.7276 13.5396C16.8799 13.3638 17.0241 13.1974 17.1733 13.0023C17.4067 12.6968 17.5693 12.4193 17.6432 12.1488C17.7298 11.8318 17.7298 11.5013 17.6432 11.1842C17.598 11.0187 17.508 10.8353 17.3145 10.5607C17.1167 10.2798 16.8396 9.94258 16.4406 9.45792C16.3834 9.38859 16.346 9.34033 16.3133 9.29817C16.2897 9.26763 16.2685 9.24032 16.2441 9.21052C16.2095 9.17879 16.1785 9.14323 16.1518 9.1045ZM3.95068 9.03637C3.83934 9.11967 3.73484 9.24467 3.55912 9.45808C3.16009 9.94275 2.88301 10.2799 2.68517 10.5608C2.49169 10.8355 2.40167 11.0188 2.35646 11.1843C2.26985 11.5014 2.26985 11.8319 2.35646 12.149C2.43034 12.4194 2.593 12.697 2.82643 13.0025C2.97628 13.1985 3.12118 13.3657 3.27439 13.5423L3.2751 13.5432C3.37799 13.6618 3.48476 13.7849 3.59919 13.9239C3.76168 14.1213 3.86299 14.2349 3.96363 14.3065C4.03815 14.3595 4.10107 14.3817 4.20209 14.3735C4.25175 14.3695 4.3205 14.3482 4.73986 14.1572C5.05953 14.0116 5.09805 13.9871 5.11962 13.9683C5.15694 13.9359 5.1722 13.9091 5.18466 13.8587C5.20303 13.7843 5.20817 13.6855 5.20817 13.4963V9.837C5.20817 9.64783 5.20303 9.549 5.18466 9.47467C5.1722 9.42425 5.15694 9.39742 5.11962 9.365C5.09805 9.34617 5.05953 9.32175 4.73986 9.17617C4.3205 8.98517 4.25175 8.96381 4.20209 8.95979C4.0988 8.95144 4.0329 8.97486 3.95068 9.03637Z" fill="#161616"/>
</svg>
