<svg width="25" height="24" viewBox="0 0 25 24" fill="none" xmlns="http://www.w3.org/2000/svg">
<path d="M12.6 15C12.0478 15 11.6 15.4477 11.6 16C11.6 16.5523 12.0478 17 12.6 17H12.609C13.1613 17 13.609 16.5523 13.609 16C13.609 15.4477 13.1613 15 12.609 15H12.6Z" fill="#6C737F"/>
<path fill-rule="evenodd" clip-rule="evenodd" d="M12.6 2.25C11.9713 2.25 11.4389 2.48307 10.9159 2.83353C10.4213 3.16499 9.86895 3.64833 9.20473 4.22959L3.34525 9.35692C2.83577 9.80273 2.73866 10.4595 2.96696 10.9887C3.19155 11.5093 3.71599 11.8843 4.36241 11.8843C4.36649 11.8843 4.3701 11.8846 4.37326 11.885L4.37326 15.1392C4.37324 16.4846 4.37322 17.5762 4.4984 18.4362C4.62949 19.3368 4.91099 20.0912 5.55291 20.6841C6.18635 21.2691 6.97801 21.5185 7.92347 21.6359C8.84232 21.75 10.0136 21.75 11.4803 21.75H13.7197C15.1864 21.75 16.3577 21.75 17.2766 21.6359C18.222 21.5185 19.0137 21.2691 19.6472 20.6841C20.2891 20.0912 20.5706 19.3368 20.7017 18.4362C20.8268 17.5762 20.8268 16.4846 20.8268 15.1392V11.885C20.8289 11.8847 20.8311 11.8845 20.8336 11.8844C20.8349 11.8843 20.8362 11.8843 20.8376 11.8843C21.4841 11.8843 22.0085 11.5093 22.2331 10.9887C22.4614 10.4595 22.3643 9.80273 21.8548 9.35692L15.9953 4.2296C15.3311 3.64834 14.7788 3.16499 14.2841 2.83353C13.7611 2.48307 13.2288 2.25 12.6 2.25ZM10.1556 5.39075C10.8663 4.76887 11.3462 4.35083 11.7509 4.07964C12.1364 3.82132 12.3776 3.75 12.6 3.75C12.8225 3.75 13.0636 3.82132 13.4491 4.07964C13.8539 4.35083 14.3338 4.76887 15.0445 5.39075L20.7537 10.3866C20.0084 10.4276 19.3268 11.0107 19.3268 11.8371V15.0806C19.3268 16.4987 19.3249 17.4807 19.2173 18.2202C19.1138 18.9315 18.926 19.3082 18.6294 19.5822C18.3243 19.864 17.8914 20.048 17.0917 20.1474C16.2762 20.2486 15.1983 20.25 13.6681 20.25H11.5319C10.0018 20.25 8.9239 20.2486 8.10833 20.1474C7.30862 20.048 6.87576 19.864 6.57068 19.5822C6.27406 19.3082 6.08631 18.9315 5.98276 18.2202C5.87513 17.4807 5.87327 16.4987 5.87327 15.0806V11.8371C5.87327 11.0107 5.19164 10.4276 4.44635 10.3866L10.1556 5.39075Z" fill="#6C737F"/>
</svg>
