<svg width="10" height="9" viewBox="0 0 10 9" fill="none" xmlns="http://www.w3.org/2000/svg">
<path d="M5.1006 2.83707C5.1006 2.66489 4.96102 2.52531 4.78884 2.52531C4.61666 2.52531 4.47708 2.66489 4.47708 2.83707V4.49978C4.47708 4.58246 4.50993 4.66176 4.56839 4.72022L5.39975 5.55158C5.5215 5.67333 5.71889 5.67333 5.84064 5.55158C5.96239 5.42983 5.96239 5.23243 5.84064 5.11068L5.1006 4.37064V2.83707Z" fill="#161616"/>
<path fill-rule="evenodd" clip-rule="evenodd" d="M4.78884 0.03125C2.32094 0.03125 0.320312 2.03188 0.320312 4.49978C0.320312 6.96768 2.32094 8.9683 4.78884 8.9683C7.25674 8.9683 9.25737 6.96768 9.25737 4.49978C9.25737 2.03188 7.25674 0.03125 4.78884 0.03125ZM0.943828 4.49978C0.943828 2.37624 2.6653 0.654765 4.78884 0.654765C6.91238 0.654765 8.63385 2.37624 8.63385 4.49978C8.63385 6.62332 6.91238 8.34479 4.78884 8.34479C2.6653 8.34479 0.943828 6.62332 0.943828 4.49978Z" fill="#161616"/>
</svg>
