<svg width="18" height="18" viewBox="0 0 18 18" fill="none" xmlns="http://www.w3.org/2000/svg">
<path d="M8.5757 8.79248C8.51782 8.79155 8.45089 8.79152 8.36833 8.79152C8.02315 8.79152 7.74333 8.5117 7.74333 8.16652C7.74333 7.82134 8.02315 7.54152 8.36833 7.54152L8.39703 7.54151C8.56796 7.54144 8.75279 7.54137 8.9088 7.56235C9.09157 7.58692 9.32506 7.65012 9.52156 7.84662C9.71806 8.04312 9.78126 8.27661 9.80583 8.45938C9.82681 8.61539 9.82674 8.80022 9.82667 8.97115L9.82666 13.1665C9.82666 13.5117 9.54684 13.7915 9.20166 13.7915C8.85648 13.7915 8.57666 13.5117 8.57666 13.1665V8.99985C8.57666 8.91729 8.57663 8.85036 8.5757 8.79248Z" fill="#161616"/>
<path d="M8.99333 4.83317C8.53309 4.83317 8.15999 5.20627 8.15999 5.6665C8.15999 6.12674 8.53309 6.49984 8.99333 6.49984H9.00081C9.46105 6.49984 9.83415 6.12674 9.83415 5.6665C9.83415 5.20627 9.46105 4.83317 9.00081 4.83317H8.99333Z" fill="#161616"/>
<path fill-rule="evenodd" clip-rule="evenodd" d="M0.0415039 8.99984C0.0415039 13.9474 4.05229 17.9582 8.99984 17.9582C13.9474 17.9582 17.9582 13.9474 17.9582 8.99984C17.9582 4.05229 13.9474 0.0415039 8.99984 0.0415039C4.05229 0.0415039 0.0415039 4.05229 0.0415039 8.99984ZM8.99984 16.7082C4.74264 16.7082 1.2915 13.257 1.2915 8.99984C1.2915 4.74264 4.74264 1.2915 8.99984 1.2915C13.257 1.2915 16.7082 4.74264 16.7082 8.99984C16.7082 13.257 13.257 16.7082 8.99984 16.7082Z" fill="#161616"/>
</svg>
