<svg width="20" height="20" viewBox="0 0 20 20" fill="none" xmlns="http://www.w3.org/2000/svg">
<path fill-rule="evenodd" clip-rule="evenodd" d="M9.99992 5.62484C8.04391 5.62484 6.45825 7.21049 6.45825 9.1665C6.45825 11.1225 8.04391 12.7082 9.99992 12.7082C11.9559 12.7082 13.5416 11.1225 13.5416 9.1665C13.5416 7.21049 11.9559 5.62484 9.99992 5.62484ZM7.70825 9.1665C7.70825 7.90085 8.73427 6.87484 9.99992 6.87484C11.2656 6.87484 12.2916 7.90085 12.2916 9.1665C12.2916 10.4322 11.2656 11.4582 9.99992 11.4582C8.73427 11.4582 7.70825 10.4322 7.70825 9.1665Z" fill="#161616"/>
<path fill-rule="evenodd" clip-rule="evenodd" d="M10.0008 1.0415C6.81233 1.0415 3.77039 2.92736 2.49712 5.90374C1.31216 8.67371 1.95365 11.0309 3.28927 13.0494C4.38432 14.7044 5.98147 16.1814 7.42236 17.5138C7.69709 17.7679 7.96626 18.0168 8.22506 18.2606L8.22644 18.2619C8.70563 18.7105 9.34214 18.9582 10.0008 18.9582C10.6594 18.9582 11.296 18.7105 11.7751 18.2619C12.0198 18.0328 12.2733 17.7992 12.532 17.5609C13.9886 16.2188 15.6082 14.7265 16.7147 13.0506C18.0487 11.03 18.688 8.67028 17.5045 5.90374C16.2312 2.92736 13.1893 1.0415 10.0008 1.0415ZM3.64638 6.39538C4.71206 3.90424 7.28464 2.2915 10.0008 2.2915C12.7169 2.2915 15.2895 3.90424 16.3552 6.39538C17.3319 8.67851 16.8391 10.5935 15.6715 12.3618C14.6569 13.8986 13.1706 15.27 11.7096 16.618C11.4449 16.8623 11.1809 17.1058 10.9208 17.3494C10.6772 17.5775 10.3476 17.7082 10.0008 17.7082C9.65425 17.7082 9.32489 17.5777 9.08131 17.3499C8.80427 17.089 8.52286 16.8284 8.24067 16.567C6.79828 15.2313 5.33554 13.8767 4.33172 12.3597C3.16308 10.5935 2.66842 8.68145 3.64638 6.39538Z" fill="#161616"/>
</svg>
