<svg width="20" height="20" viewBox="0 0 20 20" fill="none" xmlns="http://www.w3.org/2000/svg">
<path d="M10 1.0415C9.78476 1.0415 9.59939 1.11569 9.46485 1.18768C9.32536 1.26233 9.1957 1.35897 9.08066 1.45695C8.85109 1.65247 8.62145 1.90396 8.41628 2.14609C8.22483 2.37203 8.03902 2.60875 7.88063 2.81053L7.84142 2.86047C7.66376 3.08666 7.54241 3.23817 7.46849 3.31422C7.22791 3.56174 7.23353 3.95743 7.48105 4.19801C7.72857 4.4386 8.12426 4.43298 8.36484 4.18546C8.49573 4.0508 8.66425 3.83654 8.82444 3.63259L8.86171 3.58513C9.02246 3.38037 9.19439 3.16137 9.36995 2.95419L9.375 2.94823V9.1665C9.375 9.51168 9.65482 9.7915 10 9.7915C10.3452 9.7915 10.625 9.51168 10.625 9.1665V2.94823L10.63 2.95419C10.8056 3.16139 10.9775 3.38036 11.1383 3.58513L11.1756 3.63259C11.3357 3.83654 11.5043 4.0508 11.6352 4.18546C11.8757 4.43298 12.2714 4.4386 12.519 4.19801C12.7665 3.95743 12.7721 3.56174 12.5315 3.31422C12.4576 3.23817 12.3362 3.08666 12.1586 2.86047L12.1194 2.81052C11.961 2.60873 11.7752 2.37202 11.5837 2.14609C11.3786 1.90396 11.1489 1.65247 10.9193 1.45695C10.8043 1.35897 10.6746 1.26233 10.5351 1.18768C10.4006 1.11569 10.2152 1.0415 10 1.0415Z" fill="#B42318"/>
<path d="M5.41682 5.88222C5.67403 5.65202 5.69591 5.25689 5.46571 4.99969C5.23551 4.74248 4.84038 4.7206 4.58318 4.9508C2.93464 6.42628 1.875 8.41094 1.875 10.8331C1.875 15.3204 5.51269 18.9581 10 18.9581C14.4873 18.9581 18.125 15.3204 18.125 10.8331C18.125 8.41094 17.0654 6.42628 15.4168 4.9508C15.1596 4.7206 14.7645 4.74248 14.5343 4.99969C14.3041 5.25689 14.326 5.65202 14.5832 5.88222C16.0034 7.15334 16.875 8.81283 16.875 10.8331C16.875 14.6301 13.797 17.7081 10 17.7081C6.20304 17.7081 3.125 14.6301 3.125 10.8331C3.125 8.81283 3.99661 7.15334 5.41682 5.88222Z" fill="#B42318"/>
</svg>
