<svg width="20" height="20" viewBox="0 0 20 20" fill="none" xmlns="http://www.w3.org/2000/svg">
<path fill-rule="evenodd" clip-rule="evenodd" d="M10.0008 1.0415C6.21208 1.0415 3.10507 4.01784 3.10504 7.73263C3.10496 8.58858 3.04575 9.22703 2.64431 9.80182C2.57073 9.90566 2.49284 10.009 2.40753 10.1221L2.33923 10.2128C2.22978 10.3585 2.11171 10.5182 2.00124 10.6862C1.78234 11.0192 1.56609 11.424 1.49161 11.8978C1.24807 13.4474 2.37158 14.4369 3.46099 14.8749C7.32957 16.4304 12.672 16.4304 16.5405 14.8749C17.6299 14.4369 18.7535 13.4474 18.5099 11.8978C18.4354 11.424 18.2192 11.0192 18.0003 10.6862C17.8898 10.5182 17.7717 10.3585 17.6623 10.2128L17.5941 10.1222C17.5088 10.0091 17.4308 9.90565 17.3573 9.80186C16.9558 9.22705 16.8966 8.58868 16.8965 7.73268C16.8965 4.01787 13.7895 1.0415 10.0008 1.0415ZM4.35504 7.73268C4.35504 4.74698 6.86302 2.2915 10.0008 2.2915C13.1385 2.2915 15.6465 4.74698 15.6465 7.73268C15.6466 8.60983 15.6911 9.6008 16.334 10.5198L16.336 10.5227C16.4218 10.6439 16.5145 10.7667 16.6014 10.882L16.6629 10.9636C16.77 11.1062 16.8682 11.2397 16.9558 11.373C17.1332 11.6427 17.2406 11.8728 17.2751 12.0919C17.386 12.7974 16.9249 13.3731 16.0742 13.7151C12.5049 15.1503 7.49664 15.1503 3.9273 13.7151C3.07661 13.3731 2.61557 12.7974 2.72645 12.0919C2.76088 11.8728 2.86835 11.6427 3.04568 11.373C3.13332 11.2397 3.2315 11.1062 3.33864 10.9636L3.40014 10.882C3.48704 10.7667 3.57971 10.6439 3.66551 10.5227L3.66757 10.5198C4.31041 9.6008 4.35496 8.60983 4.35504 7.73268Z" fill="#161616"/>
<path d="M7.88606 17.0073C7.61404 16.7948 7.22126 16.8431 7.00878 17.1151C6.7963 17.3872 6.84457 17.7799 7.1166 17.9924C7.89246 18.5984 8.90471 18.9582 10.0013 18.9582C11.098 18.9582 12.1102 18.5984 12.8861 17.9924C13.1581 17.7799 13.2064 17.3872 12.9939 17.1151C12.7814 16.8431 12.3886 16.7948 12.1166 17.0073C11.5656 17.4377 10.8256 17.7082 10.0013 17.7082C9.17706 17.7082 8.43709 17.4377 7.88606 17.0073Z" fill="#161616"/>
</svg>
