<svg width="20" height="20" viewBox="0 0 20 20" fill="none" xmlns="http://www.w3.org/2000/svg">
<path d="M14.3751 8.08915C14.7004 7.97391 14.8708 7.61673 14.7555 7.29135C14.6403 6.96598 14.2831 6.79563 13.9577 6.91087C13.2619 7.15733 12.5856 7.63221 11.9804 8.16292C11.3688 8.69932 10.7944 9.32441 10.3041 9.91214C9.86232 10.4417 9.48253 10.9485 9.19837 11.3458C8.91237 10.9571 8.62839 10.6957 8.36726 10.5216C8.34582 10.5074 8.32449 10.4927 8.30298 10.478C8.11319 10.3479 7.90972 10.2083 7.50222 10.2083C7.15704 10.2083 6.87474 10.4882 6.87474 10.8333C6.87474 11.1646 7.13249 11.4357 7.45839 11.457C7.46143 11.4577 7.46573 11.4588 7.47126 11.4603C7.50085 11.4688 7.57194 11.4937 7.67388 11.5617C7.87655 11.6968 8.22779 12.0203 8.60739 12.7795C8.70812 12.981 8.90948 13.1127 9.13444 13.1242C9.35936 13.1357 9.57322 13.0251 9.69402 12.835C9.76825 12.7236 9.98853 12.3931 10.1274 12.1964C10.4055 11.8023 10.7996 11.2695 11.264 10.7129C11.7296 10.1548 12.2581 9.58195 12.8046 9.10272C13.3575 8.61781 13.8945 8.25936 14.3751 8.08915Z" fill="#161616"/>
<path fill-rule="evenodd" clip-rule="evenodd" d="M9.99823 1.0415C8.59717 1.0415 7.45814 1.51479 6.4647 2.02946C6.16448 2.18499 5.88559 2.33884 5.61909 2.48585C4.96704 2.84555 4.38915 3.16434 3.75451 3.36683L3.73333 3.37359C3.36058 3.49251 3.05159 3.5911 2.81748 3.68283C2.59713 3.76918 2.33525 3.8875 2.14945 4.094C1.98255 4.27949 1.89681 4.48773 1.83996 4.68692C1.78835 4.86774 1.74883 5.08702 1.70651 5.32187L1.70191 5.34738C0.670296 11.0688 2.92612 16.489 8.43483 18.5981L8.46226 18.6086C9.00372 18.816 9.37507 18.9582 10.001 18.9582C10.6269 18.9582 10.9982 18.8159 11.5396 18.6086L11.567 18.5981C17.0756 16.4889 19.3292 11.0685 18.2973 5.34734L18.2927 5.32179C18.2503 5.08692 18.2108 4.86761 18.1592 4.68678C18.1023 4.48758 18.0165 4.27931 17.8496 4.09382C17.6638 3.88733 17.4019 3.76904 17.1815 3.68272C16.9474 3.59102 16.6385 3.49249 16.2658 3.37364L16.2446 3.36687C15.6096 3.16437 15.0312 2.8455 14.3786 2.48575C14.112 2.33876 13.833 2.18494 13.5327 2.02945C12.5388 1.5148 11.3993 1.0415 9.99823 1.0415ZM4.13447 4.55768C4.89435 4.31523 5.63467 3.90678 6.32658 3.52503C6.57074 3.39033 6.80887 3.25894 7.0397 3.13936C7.966 2.65947 8.89281 2.2915 9.99823 2.2915C11.1037 2.2915 12.031 2.65952 12.958 3.13948C13.1889 3.25907 13.4272 3.39044 13.6715 3.52513C14.3638 3.9069 15.1046 4.31535 15.8648 4.55778C16.264 4.68511 16.5339 4.7715 16.7256 4.84661C16.8518 4.89605 16.9067 4.9273 16.9244 4.93767C16.931 4.95097 16.9425 4.97844 16.9572 5.02992C16.9896 5.14335 17.0186 5.29998 17.0671 5.56921C18.018 10.8411 15.9432 15.584 11.1201 17.4307C10.5665 17.6427 10.3846 17.7082 10.001 17.7082C9.61728 17.7082 9.43544 17.6427 8.88177 17.4307C4.05816 15.5839 1.98155 10.8409 2.93208 5.56919C2.98061 5.3 3.00958 5.1434 3.04196 5.02999C3.05664 4.97853 3.06812 4.95107 3.07473 4.93777C3.09241 4.9274 3.14729 4.89614 3.27354 4.84667C3.4653 4.77152 3.73518 4.68508 4.13447 4.55768Z" fill="#161616"/>
</svg>
