<svg width="21" height="22" viewBox="0 0 21 22" fill="none" xmlns="http://www.w3.org/2000/svg">
<path fill-rule="evenodd" clip-rule="evenodd" d="M10.3998 0.25C7.50029 0.25 5.14978 2.6005 5.14978 5.5C5.14978 8.39949 7.50029 10.75 10.3998 10.75C13.2993 10.75 15.6498 8.39949 15.6498 5.5C15.6498 2.6005 13.2993 0.25 10.3998 0.25ZM6.64978 5.5C6.64978 3.42893 8.32871 1.75 10.3998 1.75C12.4708 1.75 14.1498 3.42893 14.1498 5.5C14.1498 7.57107 12.4708 9.25 10.3998 9.25C8.32871 9.25 6.64978 7.57107 6.64978 5.5Z" fill="#C97035"/>
<path fill-rule="evenodd" clip-rule="evenodd" d="M16.6286 14.0792C16.466 13.9874 16.3224 13.9064 16.2061 13.8372C12.652 11.7209 8.14787 11.7209 4.59382 13.8372C4.47751 13.9064 4.33383 13.9875 4.17117 14.0793C3.45835 14.4814 2.38084 15.0893 1.64268 15.8118C1.18101 16.2637 0.742354 16.8592 0.662609 17.5888C0.577802 18.3646 0.916265 19.0927 1.59528 19.7396C2.76673 20.8556 4.17252 21.75 5.99083 21.75H14.8091C16.6274 21.75 18.0332 20.8556 19.2046 19.7396C19.8836 19.0927 20.2221 18.3646 20.1373 17.5888C20.0576 16.8592 19.6189 16.2637 19.1572 15.8118C18.4191 15.0893 17.3414 14.4813 16.6286 14.0792ZM5.36124 15.126C8.44242 13.2913 12.3575 13.2913 15.4387 15.126C15.6066 15.226 15.7905 15.3303 15.9832 15.4397C16.6958 15.8439 17.5279 16.316 18.108 16.8838C18.4681 17.2363 18.6216 17.5271 18.6462 17.7517C18.6657 17.9301 18.6206 18.2242 18.17 18.6535C17.1341 19.6404 16.0815 20.25 14.8091 20.25H5.99083C4.71838 20.25 3.6658 19.6404 2.62995 18.6535C2.17932 18.2242 2.13423 17.9301 2.15373 17.7517C2.17829 17.5271 2.3318 17.2363 2.69192 16.8838C3.27201 16.316 4.10404 15.844 4.81664 15.4397C5.00931 15.3304 5.19338 15.226 5.36124 15.126Z" fill="#C97035"/>
</svg>
