<svg width="20" height="20" viewBox="0 0 20 20" fill="none" xmlns="http://www.w3.org/2000/svg">
<path fill-rule="evenodd" clip-rule="evenodd" d="M4.95886 1.875C4.40482 1.87497 3.92741 1.87495 3.54513 1.92634C3.13544 1.98142 2.74272 2.10564 2.42418 2.42418C2.10564 2.74272 1.98142 3.13544 1.92634 3.54513C1.87495 3.92741 1.87497 4.40478 1.875 4.95882V5.04115C1.87497 5.59518 1.87495 6.0726 1.92634 6.45487C1.98142 6.86457 2.10564 7.25729 2.42418 7.57583C2.74272 7.89437 3.13544 8.01858 3.54513 8.07367C3.92742 8.12506 4.40481 8.12504 4.95886 8.12501H5.04114C5.5952 8.12504 6.07259 8.12506 6.45487 8.07367C6.86457 8.01858 7.25729 7.89437 7.57583 7.57583C7.89437 7.25729 8.01858 6.86457 8.07367 6.45487C8.12506 6.07259 8.12504 5.5952 8.12501 5.04114V4.95886C8.12504 4.40481 8.12506 3.92742 8.07367 3.54513C8.01858 3.13544 7.89437 2.74272 7.57583 2.42418C7.25729 2.10564 6.86457 1.98142 6.45487 1.92634C6.0726 1.87495 5.59523 1.87497 5.04119 1.875H4.95886ZM3.30806 3.30806C3.35564 3.26049 3.44061 3.20164 3.71169 3.1652C4.00076 3.12633 4.39308 3.125 5 3.125C5.60693 3.125 5.99925 3.12633 6.28831 3.1652C6.5594 3.20164 6.64437 3.26049 6.69195 3.30806C6.73952 3.35564 6.79837 3.44061 6.83481 3.71169C6.87368 4.00076 6.875 4.39308 6.875 5C6.875 5.60693 6.87368 5.99925 6.83481 6.28831C6.79837 6.5594 6.73952 6.64437 6.69195 6.69195C6.64437 6.73952 6.5594 6.79837 6.28831 6.83481C5.99925 6.87368 5.60693 6.875 5 6.875C4.39308 6.875 4.00076 6.87368 3.71169 6.83481C3.44061 6.79837 3.35564 6.73952 3.30806 6.69195C3.26049 6.64437 3.20164 6.5594 3.1652 6.28831C3.12633 5.99925 3.125 5.60693 3.125 5C3.125 4.39308 3.12633 4.00076 3.1652 3.71169C3.20164 3.44061 3.26049 3.35564 3.30806 3.30806Z" fill="#161616"/>
<path fill-rule="evenodd" clip-rule="evenodd" d="M4.95886 11.875C4.40483 11.875 3.92741 11.8749 3.54513 11.9263C3.13544 11.9814 2.74272 12.1056 2.42418 12.4242C2.10564 12.7427 1.98142 13.1354 1.92634 13.5451C1.87495 13.9274 1.87497 14.4048 1.875 14.9588V15.0411C1.87497 15.5952 1.87495 16.0726 1.92634 16.4549C1.98142 16.8646 2.10564 17.2573 2.42418 17.5758C2.74272 17.8944 3.13544 18.0186 3.54513 18.0737C3.92742 18.1251 4.40479 18.125 4.95883 18.125H5.04114C5.59519 18.125 6.07259 18.1251 6.45487 18.0737C6.86457 18.0186 7.25729 17.8944 7.57583 17.5758C7.89437 17.2573 8.01858 16.8646 8.07367 16.4549C8.12506 16.0726 8.12504 15.5952 8.12501 15.0411V14.9589C8.12504 14.4048 8.12506 13.9274 8.07367 13.5451C8.01858 13.1354 7.89437 12.7427 7.57583 12.4242C7.25729 12.1056 6.86457 11.9814 6.45487 11.9263C6.0726 11.8749 5.59523 11.875 5.0412 11.875H4.95886ZM3.30806 13.3081C3.35564 13.2605 3.44061 13.2016 3.71169 13.1652C4.00076 13.1263 4.39308 13.125 5 13.125C5.60693 13.125 5.99925 13.1263 6.28831 13.1652C6.5594 13.2016 6.64437 13.2605 6.69195 13.3081C6.73952 13.3556 6.79837 13.4406 6.83481 13.7117C6.87368 14.0008 6.875 14.3931 6.875 15C6.875 15.6069 6.87368 15.9992 6.83481 16.2883C6.79837 16.5594 6.73952 16.6444 6.69195 16.6919C6.64437 16.7395 6.5594 16.7984 6.28831 16.8348C5.99925 16.8737 5.60693 16.875 5 16.875C4.39308 16.875 4.00076 16.8737 3.71169 16.8348C3.44061 16.7984 3.35564 16.7395 3.30806 16.6919C3.26049 16.6444 3.20164 16.5594 3.1652 16.2883C3.12633 15.9992 3.125 15.6069 3.125 15C3.125 14.3931 3.12633 14.0008 3.1652 13.7117C3.20164 13.4406 3.26049 13.3556 3.30806 13.3081Z" fill="#161616"/>
<path d="M1.875 10C1.875 9.65482 2.15482 9.375 2.5 9.375L7.5 9.375C7.84518 9.375 8.125 9.65482 8.125 10C8.125 10.3452 7.84518 10.625 7.5 10.625L2.5 10.625C2.15482 10.625 1.875 10.3452 1.875 10Z" fill="#161616"/>
<path d="M10.625 2.5C10.625 2.15482 10.3452 1.875 10 1.875C9.65482 1.875 9.375 2.15482 9.375 2.5V6.66667C9.375 7.01185 9.65482 7.29167 10 7.29167C10.3452 7.29167 10.625 7.01185 10.625 6.66667V2.5Z" fill="#161616"/>
<path fill-rule="evenodd" clip-rule="evenodd" d="M14.9589 1.875H15.0411C15.5952 1.87497 16.0726 1.87495 16.4549 1.92634C16.8646 1.98142 17.2573 2.10564 17.5758 2.42418C17.8944 2.74272 18.0186 3.13544 18.0737 3.54513C18.1251 3.92742 18.125 4.40479 18.125 4.95883V5.04114C18.125 5.59519 18.1251 6.07259 18.0737 6.45487C18.0186 6.86457 17.8944 7.25729 17.5758 7.57583C17.2573 7.89437 16.8646 8.01858 16.4549 8.07367C16.0726 8.12506 15.5952 8.12504 15.0411 8.12501H14.9589C14.4048 8.12504 13.9274 8.12506 13.5451 8.07367C13.1354 8.01858 12.7427 7.89437 12.4242 7.57583C12.1056 7.25729 11.9814 6.86457 11.9263 6.45487C11.8749 6.07259 11.875 5.59521 11.875 5.04117V4.95886C11.875 4.40481 11.8749 3.92742 11.9263 3.54513C11.9814 3.13544 12.1056 2.74272 12.4242 2.42418C12.7427 2.10564 13.1354 1.98142 13.5451 1.92634C13.9274 1.87495 14.4048 1.87497 14.9589 1.875ZM13.7117 3.1652C13.4406 3.20164 13.3556 3.26049 13.3081 3.30806C13.2605 3.35564 13.2016 3.44061 13.1652 3.71169C13.1263 4.00076 13.125 4.39308 13.125 5C13.125 5.60693 13.1263 5.99925 13.1652 6.28831C13.2016 6.5594 13.2605 6.64437 13.3081 6.69195C13.3556 6.73952 13.4406 6.79837 13.7117 6.83481C14.0008 6.87368 14.3931 6.875 15 6.875C15.6069 6.875 15.9992 6.87368 16.2883 6.83481C16.5594 6.79837 16.6444 6.73952 16.6919 6.69195C16.7395 6.64437 16.7984 6.5594 16.8348 6.28831C16.8737 5.99925 16.875 5.60693 16.875 5C16.875 4.39308 16.8737 4.00076 16.8348 3.71169C16.7984 3.44061 16.7395 3.35564 16.6919 3.30806C16.6444 3.26049 16.5594 3.20164 16.2883 3.1652C15.9992 3.12633 15.6069 3.125 15 3.125C14.3931 3.125 14.0008 3.12633 13.7117 3.1652Z" fill="#161616"/>
<path d="M12.4589 9.375C11.9048 9.37497 11.4274 9.37495 11.0451 9.42634C10.6354 9.48142 10.2427 9.60564 9.92418 9.92418C9.60564 10.2427 9.48142 10.6354 9.42634 11.0451C9.37495 11.4274 9.37497 11.9048 9.375 12.4588L9.375 12.5C9.375 12.8452 9.65483 13.125 10 13.125C10.3452 13.125 10.625 12.8452 10.625 12.5C10.625 11.8931 10.6263 11.5008 10.6652 11.2117C10.7016 10.9406 10.7605 10.8556 10.8081 10.8081C10.8556 10.7605 10.9406 10.7016 11.2117 10.6652C11.5008 10.6263 11.8931 10.625 12.5 10.625H17.5C17.8452 10.625 18.125 10.3452 18.125 10C18.125 9.65483 17.8452 9.375 17.5 9.375L12.4589 9.375Z" fill="#161616"/>
<path d="M15 13.125C15.607 13.125 15.9992 13.1263 16.2882 13.1652C16.5591 13.2017 16.644 13.2606 16.6916 13.3083C16.7394 13.3561 16.7983 13.4415 16.8348 13.7132C16.8737 14.0028 16.875 14.3959 16.875 15.0036C16.875 15.6114 16.8737 16.0044 16.8348 16.294C16.7983 16.5658 16.7394 16.6512 16.6916 16.699C16.6167 16.774 16.471 16.8555 15.8145 16.8753C15.4695 16.8857 15.1982 17.1738 15.2086 17.5189C15.219 17.8639 15.5072 18.1351 15.8522 18.1247C16.4902 18.1055 17.1167 18.0424 17.5761 17.5822C17.8945 17.2634 18.0186 16.8704 18.0737 16.4604C18.1251 16.0776 18.125 15.5997 18.125 15.0448V14.9625C18.125 14.4076 18.1251 13.9296 18.0737 13.5469C18.0186 13.1369 17.8945 12.7439 17.5761 12.425C17.2576 12.1061 16.8649 11.9816 16.455 11.9264C16.0726 11.8749 15.5952 11.875 15.0412 11.875L15 11.875C14.6548 11.875 14.375 12.1548 14.375 12.5C14.375 12.8452 14.6548 13.125 15 13.125Z" fill="#161616"/>
<path d="M13.125 12.5C13.125 12.1548 12.8452 11.875 12.5 11.875C12.1548 11.875 11.875 12.1548 11.875 12.5V13.75C11.875 14.4594 12.0747 15.0524 12.6486 15.3727C12.8961 15.5109 13.1655 15.5678 13.4085 15.5952C13.6517 15.6227 13.9155 15.625 14.1667 15.625C14.2817 15.625 14.375 15.7183 14.375 15.8333C14.375 16.1785 14.6548 16.4583 15 16.4583C15.3452 16.4583 15.625 16.1785 15.625 15.8333C15.625 15.0279 14.9721 14.375 14.1667 14.375C13.9111 14.375 13.7131 14.3717 13.5488 14.3531C13.3842 14.3345 13.3003 14.3049 13.2578 14.2812L13.2566 14.2807C13.2419 14.2746 13.125 14.2261 13.125 13.75V12.5Z" fill="#161616"/>
<path d="M10.625 14.8077C10.625 14.4625 10.3452 14.1827 10 14.1827C9.65483 14.1827 9.375 14.4625 9.375 14.8077V17.1154C9.375 17.4606 9.65483 17.7404 10 17.7404C10.3452 17.7404 10.625 17.4606 10.625 17.1154V14.8077Z" fill="#161616"/>
<path d="M12.5 16.875C12.1548 16.875 11.875 17.1548 11.875 17.5C11.875 17.8452 12.1548 18.125 12.5 18.125H13.3333C13.6785 18.125 13.9583 17.8452 13.9583 17.5C13.9583 17.1548 13.6785 16.875 13.3333 16.875H12.5Z" fill="#161616"/>
</svg>
