<svg width="20" height="20" viewBox="0 0 20 20" fill="none" xmlns="http://www.w3.org/2000/svg">
<path fill-rule="evenodd" clip-rule="evenodd" d="M4.7915 5.4165C4.7915 3.00026 6.75026 1.0415 9.1665 1.0415C11.5827 1.0415 13.5415 3.00026 13.5415 5.4165C13.5415 7.83275 11.5827 9.7915 9.1665 9.7915C6.75026 9.7915 4.7915 7.83275 4.7915 5.4165ZM9.1665 2.2915C7.44061 2.2915 6.0415 3.69061 6.0415 5.4165C6.0415 7.14239 7.44061 8.5415 9.1665 8.5415C10.8924 8.5415 12.2915 7.14239 12.2915 5.4165C12.2915 3.69061 10.8924 2.2915 9.1665 2.2915Z" fill="#161616"/>
<path d="M9.94184 12.3276C8.22976 12.1676 6.47766 12.5391 4.96772 13.4382C4.82787 13.5214 4.67464 13.6084 4.51413 13.6994C3.92029 14.0363 3.2267 14.4298 2.74329 14.903C2.44318 15.1967 2.31526 15.4391 2.29479 15.6263C2.27854 15.7749 2.31612 16.02 2.69165 16.3778C3.55485 17.2002 4.432 17.7082 5.49237 17.7082H10.8333C11.1785 17.7082 11.4583 17.988 11.4583 18.3332C11.4583 18.6783 11.1785 18.9582 10.8333 18.9582H5.49237C3.97712 18.9582 2.80563 18.2129 1.82942 17.2828C1.26357 16.7437 0.981522 16.137 1.05219 15.4905C1.11865 14.8825 1.48419 14.3863 1.86892 14.0097C2.48406 13.4076 3.38198 12.901 3.97599 12.5659C4.11155 12.4894 4.23128 12.4219 4.3282 12.3641C6.07327 11.3251 8.09138 10.8993 10.0581 11.083C10.4018 11.1152 10.6544 11.4198 10.6223 11.7635C10.5902 12.1072 10.2855 12.3597 9.94184 12.3276Z" fill="#161616"/>
<path fill-rule="evenodd" clip-rule="evenodd" d="M14.9993 11.0415C14.3311 11.0415 13.7944 11.2574 13.3565 11.4729C13.2079 11.5461 13.0793 11.6135 12.9624 11.6748C12.7041 11.8103 12.5029 11.9158 12.269 11.9867L12.252 11.9918C12.1022 12.0372 11.9628 12.0795 11.8537 12.1201C11.7602 12.1549 11.5781 12.2253 11.4364 12.3749C11.3114 12.5069 11.2524 12.6513 11.2187 12.7635C11.1909 12.8559 11.1708 12.9623 11.1543 13.0493L11.151 13.0667C10.6865 15.514 11.7109 17.8799 14.2214 18.793L14.2415 18.8003C14.4691 18.8832 14.675 18.9582 15.0004 18.9582C15.3259 18.9582 15.5317 18.8832 15.7593 18.8003L15.7794 18.793C18.2899 17.8798 19.3132 15.5138 18.8486 13.0666L18.8454 13.0493C18.8289 12.9623 18.8087 12.8558 18.781 12.7634C18.7473 12.6512 18.6882 12.5068 18.5632 12.3748C18.4215 12.2252 18.2394 12.1548 18.1458 12.12C18.0367 12.0794 17.8974 12.0372 17.7476 11.9918L17.7306 11.9867C17.4965 11.9158 17.2952 11.8102 17.0367 11.6747C16.9197 11.6135 16.791 11.546 16.6423 11.4729C16.2043 11.2574 15.6674 11.0415 14.9993 11.0415ZM13.6434 12.7309C13.7389 12.6808 13.828 12.634 13.9085 12.5944C14.2789 12.4121 14.6121 12.2915 14.9993 12.2915C15.3865 12.2915 15.7199 12.4121 16.0906 12.5945C16.1712 12.6341 16.2603 12.6809 16.3559 12.731C16.6533 12.8869 17.0127 13.0753 17.3681 13.183C17.4734 13.2149 17.552 13.2388 17.6127 13.2583L17.6206 13.2998C17.9908 15.2499 17.1917 16.9492 15.3521 17.6183C15.1204 17.7026 15.095 17.7082 15.0004 17.7082C14.9058 17.7082 14.8804 17.7026 14.6487 17.6183C12.8088 16.9491 12.009 15.2496 12.3791 13.2998L12.387 13.2584C12.4477 13.2388 12.5263 13.2148 12.6316 13.1829C12.987 13.0752 13.3462 12.8868 13.6434 12.7309Z" fill="#161616"/>
</svg>
