<svg width="20" height="20" viewBox="0 0 20 20" fill="none" xmlns="http://www.w3.org/2000/svg">
<path fill-rule="evenodd" clip-rule="evenodd" d="M10.0164 6.4585C8.06043 6.4585 6.47477 8.04415 6.47477 10.0002C6.47477 11.9562 8.06043 13.5418 10.0164 13.5418C11.9724 13.5418 13.5581 11.9562 13.5581 10.0002C13.5581 8.04415 11.9724 6.4585 10.0164 6.4585ZM7.72477 10.0002C7.72477 8.73451 8.75079 7.7085 10.0164 7.7085C11.2821 7.7085 12.3081 8.73451 12.3081 10.0002C12.3081 11.2658 11.2821 12.2918 10.0164 12.2918C8.75079 12.2918 7.72477 11.2658 7.72477 10.0002Z" fill="#161616"/>
<path fill-rule="evenodd" clip-rule="evenodd" d="M10.5462 1.04834L9.55835 1.04834C9.29444 1.04831 9.04643 1.04828 8.83857 1.07206C8.60695 1.09855 8.36339 1.15983 8.13611 1.32396C7.90894 1.48801 7.77411 1.69991 7.67595 1.91134C7.58778 2.10124 7.50943 2.33684 7.42598 2.5878L7.4167 2.61567L7.14357 3.4314C7.06464 3.63038 6.92654 3.79997 6.74828 3.91725L6.4963 4.06264C6.28538 4.16758 6.04519 4.19749 5.81517 4.14752L4.8149 3.86578L4.78551 3.85744C4.51217 3.77984 4.25656 3.70727 4.03645 3.67232C3.79165 3.63345 3.52385 3.62849 3.24693 3.74112C2.97011 3.85371 2.78174 4.04413 2.63343 4.2427C2.49999 4.42137 2.36725 4.6518 2.22519 4.8984L1.78351 5.66492C1.65043 5.89581 1.52555 6.11248 1.44177 6.30594C1.34849 6.52136 1.27968 6.76457 1.30914 7.04504C1.33861 7.32555 1.45648 7.54913 1.59253 7.74044C1.7147 7.91222 1.8819 8.09812 2.06004 8.29617L2.07872 8.31694L2.07982 8.31816L2.92243 9.26021C3.02775 9.4029 3.13785 9.71305 3.13785 10.0065C3.13785 10.3003 3.02777 10.6104 2.92244 10.7531L2.07982 11.6951L2.07872 11.6963L2.06004 11.7171C1.8819 11.9152 1.7147 12.1011 1.59254 12.2728C1.45648 12.4642 1.33861 12.6877 1.30915 12.9682C1.27968 13.2487 1.34849 13.4919 1.44177 13.7073C1.52555 13.9008 1.65043 14.1175 1.78351 14.3484L2.22519 15.1149C2.36724 15.3615 2.49998 15.5919 2.63342 15.7706C2.78173 15.9691 2.9701 16.1596 3.24694 16.2722C3.52386 16.3848 3.79167 16.3798 4.03647 16.341C4.25658 16.306 4.5122 16.2334 4.78555 16.1558L4.81444 16.1476L5.81513 15.8657C6.0452 15.8158 6.28544 15.8457 6.4964 15.9507L6.74833 16.0961C6.92655 16.2133 7.06462 16.3829 7.14354 16.5819L7.4167 17.3977L7.42598 17.4256C7.50943 17.6765 7.58778 17.9121 7.67595 18.102C7.77411 18.3134 7.90894 18.5253 8.13611 18.6894C8.36339 18.8535 8.60696 18.9148 8.83857 18.9413C9.04643 18.9651 9.29445 18.965 9.55836 18.965H10.5462C10.8101 18.965 11.0581 18.9651 11.266 18.9413C11.4976 18.9148 11.7412 18.8535 11.9684 18.6894C12.1956 18.5253 12.3304 18.3134 12.4286 18.102C12.5168 17.9121 12.5951 17.6765 12.6786 17.4256L12.6879 17.3977L12.961 16.5819C13.0399 16.3829 13.178 16.2133 13.3562 16.0961L13.6082 15.9507C13.8191 15.8457 14.0594 15.8158 14.2894 15.8657L15.2901 16.1476L15.319 16.1558C15.5924 16.2334 15.848 16.306 16.0681 16.341C16.3129 16.3798 16.5807 16.3848 16.8576 16.2722C17.1345 16.1596 17.3228 15.9691 17.4711 15.7706C17.6046 15.5919 17.7373 15.3615 17.8794 15.1149L18.321 14.3484C18.4541 14.1175 18.579 13.9008 18.6628 13.7073C18.7561 13.4919 18.8249 13.2487 18.7954 12.9682C18.7659 12.6877 18.6481 12.4642 18.512 12.2728C18.3899 12.1011 18.2227 11.9152 18.0446 11.7172L18.0258 11.6963L17.1821 10.7531C17.0768 10.6104 16.9667 10.3003 16.9667 10.0065C16.9667 9.71305 17.0768 9.4029 17.1821 9.2602L18.0247 8.31816L18.0258 8.31694L18.0445 8.29617C18.2227 8.09812 18.3899 7.91222 18.512 7.74044C18.6481 7.54913 18.7659 7.32555 18.7954 7.04504C18.8249 6.76456 18.7561 6.52136 18.6628 6.30594C18.579 6.11249 18.4541 5.89583 18.3211 5.66495L17.8793 4.89837C17.7373 4.65178 17.6046 4.42136 17.4711 4.2427C17.3228 4.04413 17.1345 3.85371 16.8576 3.74112C16.5807 3.62849 16.3129 3.63345 16.0681 3.67232C15.848 3.70727 15.5924 3.77984 15.319 3.85744L15.2902 3.86564L14.2894 4.14752C14.0594 4.19749 13.8192 4.16758 13.6083 4.06264L13.3563 3.91725C13.178 3.79996 13.0399 3.63037 12.961 3.43139L12.6875 2.61452L12.6786 2.58777C12.5951 2.33682 12.5168 2.10123 12.4286 1.91134C12.3304 1.69991 12.1956 1.48801 11.9684 1.32396C11.7412 1.15983 11.4976 1.09855 11.266 1.07206C11.0581 1.04828 10.8101 1.04831 10.5462 1.04834ZM8.86726 2.33792L8.86794 2.33733C8.86794 2.33733 8.87213 2.33519 8.87868 2.33302C8.89286 2.32832 8.92283 2.32057 8.98063 2.31396C9.10883 2.29929 9.28405 2.29834 9.58779 2.29834L10.5168 2.29834C10.8205 2.29834 10.9957 2.29929 11.1239 2.31396C11.1817 2.32057 11.2117 2.32832 11.2259 2.33302C11.2324 2.33519 11.2366 2.33733 11.2366 2.33733L11.2373 2.33792C11.2373 2.33792 11.2401 2.34079 11.2443 2.34641C11.2534 2.35855 11.2703 2.38475 11.2949 2.43773C11.3494 2.55515 11.4057 2.72161 11.5018 3.01026L11.7847 3.85535L11.7896 3.86794C11.9647 4.3245 12.2811 4.71314 12.6928 4.97682L12.705 4.98463L13.0115 5.16146L13.025 5.16841C13.5052 5.41514 14.0571 5.48398 14.5832 5.36267L14.5978 5.3593L15.6302 5.0685C15.9442 4.97941 16.1268 4.92866 16.2641 4.90686C16.3262 4.897 16.3594 4.89667 16.3753 4.89762C16.3825 4.89806 16.3862 4.89886 16.3862 4.89886L16.3872 4.89928C16.3872 4.89928 16.3905 4.90134 16.3961 4.90615C16.4082 4.91661 16.4319 4.94017 16.4696 4.9907C16.553 5.10235 16.6488 5.26645 16.8119 5.54954L17.2232 6.26337C17.3762 6.52892 17.4639 6.6829 17.5157 6.80265C17.5391 6.8567 17.5475 6.88703 17.5506 6.90207C17.552 6.90903 17.5523 6.91321 17.5523 6.91321L17.5523 6.91444L17.552 6.91563C17.552 6.91563 17.5509 6.91963 17.5481 6.92613C17.542 6.94015 17.5275 6.96804 17.4934 7.01599C17.4178 7.12226 17.3001 7.25455 17.0953 7.48237L17.0942 7.48359L16.2222 8.45844L16.2103 8.47345C15.8983 8.86845 15.7167 9.47545 15.7167 10.0065C15.7167 10.5379 15.8983 11.1447 16.2103 11.5398L16.2222 11.5548L17.0953 12.5309C17.3001 12.7587 17.4178 12.891 17.4934 12.9973C17.5275 13.0452 17.5419 13.0731 17.5481 13.0872C17.5509 13.0937 17.552 13.0977 17.552 13.0977L17.5523 13.0988L17.5523 13.1001C17.5523 13.1001 17.552 13.1043 17.5506 13.1112C17.5475 13.1263 17.5391 13.1566 17.5157 13.2106C17.4639 13.3304 17.3762 13.4844 17.2232 13.7499L16.8119 14.4637C16.6488 14.7468 16.553 14.9109 16.4696 15.0226C16.4319 15.0731 16.4082 15.0967 16.3961 15.1071C16.3905 15.1119 16.3872 15.114 16.3872 15.114L16.3862 15.1144C16.3862 15.1144 16.3825 15.1152 16.3753 15.1157C16.3595 15.1166 16.3262 15.1163 16.2641 15.1064C16.1268 15.0846 15.9442 15.0339 15.6302 14.9448L14.5978 14.654L14.5832 14.6506C14.0571 14.5292 13.5051 14.5981 13.0248 14.8449L13.0113 14.8519L12.7049 15.0287L12.6927 15.0366C12.281 15.3002 11.9647 15.6888 11.7896 16.1453L11.7848 16.1579L11.5021 17.002L11.5018 17.0031C11.4057 17.2917 11.3494 17.4582 11.2949 17.5756C11.2703 17.6286 11.2534 17.6548 11.2443 17.667C11.2401 17.6726 11.2373 17.6754 11.2373 17.6754L11.2359 17.6764C11.2359 17.6764 11.2347 17.677 11.2325 17.6779C11.2308 17.6786 11.2286 17.6794 11.2259 17.6803C11.2117 17.685 11.1817 17.6928 11.1239 17.6994C10.9957 17.7141 10.8205 17.715 10.5168 17.715H9.58779C9.28405 17.715 9.10883 17.7141 8.98063 17.6994C8.92283 17.6928 8.89286 17.685 8.87868 17.6803C8.87213 17.6782 8.86795 17.676 8.86795 17.676L8.86726 17.6754C8.86726 17.6754 8.86444 17.6726 8.86025 17.667C8.85121 17.6548 8.8343 17.6286 8.8097 17.5756C8.75519 17.4582 8.69882 17.2917 8.60279 17.0031L8.3198 16.1579L8.31497 16.1453C8.13989 15.6888 7.82351 15.3002 7.4119 15.0366L7.3997 15.0287L7.09329 14.8519L7.07975 14.8449C6.59948 14.5981 6.04749 14.5292 5.52134 14.6506L5.50675 14.654L4.47435 14.9448C4.1604 15.0339 3.97774 15.0846 3.84044 15.1064C3.77834 15.1163 3.74511 15.1166 3.7293 15.1157C3.72203 15.1152 3.71836 15.1144 3.71836 15.1144L3.71735 15.114C3.71735 15.114 3.71406 15.1119 3.70849 15.1071C3.69636 15.0967 3.67267 15.0731 3.63492 15.0226C3.55152 14.9109 3.45577 14.7468 3.29266 14.4637L2.88135 13.7499C2.72833 13.4844 2.64071 13.3304 2.58885 13.2106C2.56545 13.1566 2.55706 13.1263 2.55398 13.1112C2.55255 13.1043 2.55228 13.1001 2.55228 13.1001L2.5523 13.0988L2.55253 13.0977C2.55253 13.0977 2.55365 13.0937 2.55649 13.0872C2.56261 13.0731 2.5771 13.0452 2.6112 12.9973C2.68678 12.891 2.80445 12.7587 3.0093 12.5309L3.0104 12.5297L3.88238 11.5548L3.89424 11.5398C4.2063 11.1447 4.38785 10.5379 4.38785 10.0065C4.38785 9.47545 4.20622 8.86845 3.89421 8.47345L3.88235 8.45844L3.0104 7.48359L3.0093 7.48237C2.80445 7.25455 2.68678 7.12226 2.6112 7.01599C2.5771 6.96804 2.56261 6.94015 2.55649 6.92613C2.55365 6.91963 2.55253 6.91563 2.55253 6.91563L2.5523 6.91444L2.55228 6.91321C2.55228 6.91321 2.55255 6.90903 2.55397 6.90207C2.55706 6.88703 2.56544 6.8567 2.58885 6.80265C2.6407 6.6829 2.72833 6.52892 2.88134 6.26337L3.29267 5.54954C3.45579 5.26645 3.55154 5.10235 3.63493 4.9907C3.67267 4.94017 3.69637 4.91661 3.70849 4.90615C3.71406 4.90134 3.71735 4.89928 3.71735 4.89928L3.71836 4.89886C3.71836 4.89886 3.72204 4.89806 3.7293 4.89762C3.74511 4.89667 3.77834 4.897 3.84044 4.90686C3.97775 4.92866 4.16039 4.97941 4.47434 5.0685L5.5068 5.3593L5.52139 5.36267C6.04744 5.48398 6.59933 5.41514 7.07954 5.16841L7.09308 5.16146L7.39954 4.98463L7.41173 4.97682C7.82344 4.71314 8.13988 4.3245 8.315 3.86794L8.31983 3.85535L8.60279 3.01026C8.69882 2.72161 8.75519 2.55515 8.8097 2.43773C8.8343 2.38475 8.85121 2.35855 8.86025 2.34641C8.86444 2.34079 8.86726 2.33792 8.86726 2.33792Z" fill="#161616"/>
</svg>
