<svg width="25" height="24" viewBox="0 0 25 24" fill="none" xmlns="http://www.w3.org/2000/svg">
<path fill-rule="evenodd" clip-rule="evenodd" d="M13.3583 1.25L10.2417 1.25C8.64129 1.24998 7.36009 1.24996 6.35444 1.39229C5.31092 1.53997 4.45467 1.85378 3.78137 2.56252C3.11321 3.26584 2.82207 4.15117 2.68417 5.23082C2.54996 6.28161 2.54997 7.62354 2.54999 9.31487L2.54999 14.6851C2.54997 16.3765 2.54996 17.7184 2.68417 18.7692C2.82207 19.8488 3.11321 20.7342 3.78137 21.4375C4.45467 22.1462 5.31092 22.46 6.35444 22.6077C7.36009 22.75 8.64127 22.75 10.2417 22.75H11.8C12.2142 22.75 12.55 22.4142 12.55 22C12.55 21.5858 12.2142 21.25 11.8 21.25H10.3C8.62779 21.25 7.453 21.2482 6.56463 21.1225C5.70195 21.0004 5.22068 20.7747 4.86886 20.4044C4.51189 20.0286 4.29047 19.506 4.17209 18.5791C4.05143 17.6345 4.04999 16.3885 4.04999 14.6316L4.04999 9.36842C4.04999 7.6115 4.05143 6.36553 4.17209 5.42086C4.29047 4.49399 4.51189 3.9714 4.86886 3.59564C5.22068 3.22531 5.70195 2.99958 6.56463 2.87749C6.7544 2.85063 6.95724 2.82943 7.17521 2.8127C7.25846 3.31002 7.33519 3.74508 7.44035 4.0983C7.56511 4.51736 7.75341 4.90907 8.11638 5.21656C8.47936 5.52405 8.8967 5.64538 9.33057 5.69955C9.73325 5.74983 10.2281 5.7498 10.7971 5.74977L12.8029 5.74977C13.3719 5.7498 13.8668 5.74983 14.2695 5.69955C14.7034 5.64538 15.1207 5.52405 15.4837 5.21656C15.8467 4.90907 16.035 4.51736 16.1597 4.0983C16.2649 3.74508 16.3416 3.31002 16.4249 2.8127C16.6428 2.82944 16.8456 2.85063 17.0353 2.87749C17.898 2.99958 18.3793 3.22531 18.7311 3.59564C19.0881 3.9714 19.3095 4.49399 19.4279 5.42086C19.5485 6.36553 19.55 7.6115 19.55 9.36842V13C19.55 13.4142 19.8858 13.75 20.3 13.75C20.7142 13.75 21.05 13.4142 21.05 13V9.31488C21.05 7.62355 21.05 6.28161 20.9158 5.23082C20.7779 4.15117 20.4868 3.26584 19.8186 2.56252C19.1453 1.85378 18.2891 1.53997 17.2455 1.39229C16.2399 1.24996 14.9587 1.24998 13.3583 1.25ZM8.87799 3.67029C8.81155 3.44712 8.75634 3.16051 8.68709 2.75627C9.16754 2.75023 9.70195 2.75 10.3 2.75L13.3 2.75C13.8981 2.75 14.4325 2.75023 14.913 2.75627C14.8437 3.16051 14.7885 3.44712 14.7221 3.67029C14.6422 3.93872 14.5708 4.02405 14.5141 4.07203C14.4575 4.12001 14.3616 4.17641 14.0837 4.21111C13.785 4.2484 13.3848 4.24976 12.7587 4.24976L10.8414 4.24976C10.2153 4.24976 9.8151 4.2484 9.51641 4.21111C9.23849 4.17641 9.14259 4.12001 9.08595 4.07203C9.0293 4.02405 8.95791 3.93872 8.87799 3.67029Z" fill="#6C737F"/>
<path d="M22.5504 16.7072C22.9408 16.5689 23.1452 16.1403 23.007 15.7498C22.8687 15.3594 22.4401 15.155 22.0496 15.2932C21.2145 15.589 20.403 16.1588 19.6768 16.7957C18.9428 17.4394 18.2536 18.1895 17.6653 18.8948C17.1351 19.5303 16.6793 20.1384 16.3384 20.6151C15.9952 20.1487 15.6544 19.8351 15.341 19.6262C15.3159 19.6094 15.2909 19.5923 15.2656 19.575L15.2646 19.5743C15.0365 19.418 14.7917 19.2502 14.3 19.2502C13.8858 19.2502 13.55 19.586 13.55 20.0002C13.55 20.3977 13.8593 20.7231 14.2504 20.7486C14.254 20.7494 14.2592 20.7507 14.2658 20.7526C14.3013 20.7627 14.3866 20.7927 14.509 20.8742C14.7522 21.0364 15.1737 21.4246 15.6292 22.3356C15.7501 22.5774 15.9917 22.7354 16.2616 22.7492C16.5315 22.763 16.7882 22.6303 16.9331 22.4022C17.0222 22.2685 17.2865 21.8719 17.4532 21.6358C17.7869 21.163 18.2598 20.5236 18.8171 19.8556C19.3758 19.1859 20.0101 18.4985 20.6658 17.9235C21.3293 17.3416 21.9737 16.9114 22.5504 16.7072Z" fill="#6C737F"/>
<path d="M7.79999 10.25C7.38577 10.25 7.04999 10.5858 7.04999 11C7.04999 11.4142 7.38577 11.75 7.79999 11.75L15.8 11.75C16.2142 11.75 16.55 11.4142 16.55 11C16.55 10.5858 16.2142 10.25 15.8 10.25L7.79999 10.25Z" fill="#6C737F"/>
<path d="M7.79999 15.25C7.38577 15.25 7.04999 15.5858 7.04999 16C7.04999 16.4142 7.38577 16.75 7.79999 16.75H11.8C12.2142 16.75 12.55 16.4142 12.55 16C12.55 15.5858 12.2142 15.25 11.8 15.25H7.79999Z" fill="#6C737F"/>
</svg>
